<?xml version="1.0" encoding="utf-8" standalone="no"?>
<!DOCTYPE svg PUBLIC "-//W3C//DTD SVG 1.1//EN"
  "http://www.w3.org/Graphics/SVG/1.1/DTD/svg11.dtd">
<!-- Created with matplotlib (https://matplotlib.org/) -->
<svg height="329.808625pt" version="1.1" viewBox="0 0 404.285625 329.808625" width="404.285625pt" xmlns="http://www.w3.org/2000/svg" xmlns:xlink="http://www.w3.org/1999/xlink">
 <defs>
  <style type="text/css">
*{stroke-linecap:butt;stroke-linejoin:round;}
  </style>
 </defs>
 <g id="figure_1">
  <g id="patch_1">
   <path d="M 0 329.808625 
L 404.285625 329.808625 
L 404.285625 0 
L 0 0 
z
" style="fill:#ffffff;"/>
  </g>
  <g id="axes_1">
   <g id="patch_2">
    <path d="M 36.465625 290.31675 
L 393.585625 290.31675 
L 393.585625 24.20475 
L 36.465625 24.20475 
z
" style="fill:#e5e5e5;"/>
   </g>
   <g id="matplotlib.axis_1">
    <g id="xtick_1">
     <g id="line2d_1">
      <path clip-path="url(#pdc6011b98e)" d="M 85.32695 290.31675 
L 85.32695 24.20475 
" style="fill:none;stroke:#ffffff;stroke-linecap:square;stroke-width:0.8;"/>
     </g>
     <g id="line2d_2">
      <defs>
       <path d="M 0 0 
L 0 3.5 
" id="m43c04054ad" style="stroke:#555555;stroke-width:0.8;"/>
      </defs>
      <g>
       <use style="fill:#555555;stroke:#555555;stroke-width:0.8;" x="85.32695" xlink:href="#m43c04054ad" y="290.31675"/>
      </g>
     </g>
     <g id="text_1">
      <!-- −0.4 -->
      <defs>
       <path d="M 10.59375 35.5 
L 73.1875 35.5 
L 73.1875 27.203125 
L 10.59375 27.203125 
z
" id="DejaVuSans-8722"/>
       <path d="M 31.78125 66.40625 
Q 24.171875 66.40625 20.328125 58.90625 
Q 16.5 51.421875 16.5 36.375 
Q 16.5 21.390625 20.328125 13.890625 
Q 24.171875 6.390625 31.78125 6.390625 
Q 39.453125 6.390625 43.28125 13.890625 
Q 47.125 21.390625 47.125 36.375 
Q 47.125 51.421875 43.28125 58.90625 
Q 39.453125 66.40625 31.78125 66.40625 
z
M 31.78125 74.21875 
Q 44.046875 74.21875 50.515625 64.515625 
Q 56.984375 54.828125 56.984375 36.375 
Q 56.984375 17.96875 50.515625 8.265625 
Q 44.046875 -1.421875 31.78125 -1.421875 
Q 19.53125 -1.421875 13.0625 8.265625 
Q 6.59375 17.96875 6.59375 36.375 
Q 6.59375 54.828125 13.0625 64.515625 
Q 19.53125 74.21875 31.78125 74.21875 
z
" id="DejaVuSans-48"/>
       <path d="M 10.6875 12.40625 
L 21 12.40625 
L 21 0 
L 10.6875 0 
z
" id="DejaVuSans-46"/>
       <path d="M 37.796875 64.3125 
L 12.890625 25.390625 
L 37.796875 25.390625 
z
M 35.203125 72.90625 
L 47.609375 72.90625 
L 47.609375 25.390625 
L 58.015625 25.390625 
L 58.015625 17.1875 
L 47.609375 17.1875 
L 47.609375 0 
L 37.796875 0 
L 37.796875 17.1875 
L 4.890625 17.1875 
L 4.890625 26.703125 
z
" id="DejaVuSans-52"/>
      </defs>
      <g style="fill:#555555;" transform="translate(73.185544 304.915187)scale(0.1 -0.1)">
       <use xlink:href="#DejaVuSans-8722"/>
       <use x="83.789062" xlink:href="#DejaVuSans-48"/>
       <use x="147.412109" xlink:href="#DejaVuSans-46"/>
       <use x="179.199219" xlink:href="#DejaVuSans-52"/>
      </g>
     </g>
    </g>
    <g id="xtick_2">
     <g id="line2d_3">
      <path clip-path="url(#pdc6011b98e)" d="M 150.584145 290.31675 
L 150.584145 24.20475 
" style="fill:none;stroke:#ffffff;stroke-linecap:square;stroke-width:0.8;"/>
     </g>
     <g id="line2d_4">
      <g>
       <use style="fill:#555555;stroke:#555555;stroke-width:0.8;" x="150.584145" xlink:href="#m43c04054ad" y="290.31675"/>
      </g>
     </g>
     <g id="text_2">
      <!-- −0.2 -->
      <defs>
       <path d="M 19.1875 8.296875 
L 53.609375 8.296875 
L 53.609375 0 
L 7.328125 0 
L 7.328125 8.296875 
Q 12.9375 14.109375 22.625 23.890625 
Q 32.328125 33.6875 34.8125 36.53125 
Q 39.546875 41.84375 41.421875 45.53125 
Q 43.3125 49.21875 43.3125 52.78125 
Q 43.3125 58.59375 39.234375 62.25 
Q 35.15625 65.921875 28.609375 65.921875 
Q 23.96875 65.921875 18.8125 64.3125 
Q 13.671875 62.703125 7.8125 59.421875 
L 7.8125 69.390625 
Q 13.765625 71.78125 18.9375 73 
Q 24.125 74.21875 28.421875 74.21875 
Q 39.75 74.21875 46.484375 68.546875 
Q 53.21875 62.890625 53.21875 53.421875 
Q 53.21875 48.921875 51.53125 44.890625 
Q 49.859375 40.875 45.40625 35.40625 
Q 44.1875 33.984375 37.640625 27.21875 
Q 31.109375 20.453125 19.1875 8.296875 
z
" id="DejaVuSans-50"/>
      </defs>
      <g style="fill:#555555;" transform="translate(138.442739 304.915187)scale(0.1 -0.1)">
       <use xlink:href="#DejaVuSans-8722"/>
       <use x="83.789062" xlink:href="#DejaVuSans-48"/>
       <use x="147.412109" xlink:href="#DejaVuSans-46"/>
       <use x="179.199219" xlink:href="#DejaVuSans-50"/>
      </g>
     </g>
    </g>
    <g id="xtick_3">
     <g id="line2d_5">
      <path clip-path="url(#pdc6011b98e)" d="M 215.84134 290.31675 
L 215.84134 24.20475 
" style="fill:none;stroke:#ffffff;stroke-linecap:square;stroke-width:0.8;"/>
     </g>
     <g id="line2d_6">
      <g>
       <use style="fill:#555555;stroke:#555555;stroke-width:0.8;" x="215.84134" xlink:href="#m43c04054ad" y="290.31675"/>
      </g>
     </g>
     <g id="text_3">
      <!-- 0.0 -->
      <g style="fill:#555555;" transform="translate(207.889777 304.915187)scale(0.1 -0.1)">
       <use xlink:href="#DejaVuSans-48"/>
       <use x="63.623047" xlink:href="#DejaVuSans-46"/>
       <use x="95.410156" xlink:href="#DejaVuSans-48"/>
      </g>
     </g>
    </g>
    <g id="xtick_4">
     <g id="line2d_7">
      <path clip-path="url(#pdc6011b98e)" d="M 281.098535 290.31675 
L 281.098535 24.20475 
" style="fill:none;stroke:#ffffff;stroke-linecap:square;stroke-width:0.8;"/>
     </g>
     <g id="line2d_8">
      <g>
       <use style="fill:#555555;stroke:#555555;stroke-width:0.8;" x="281.098535" xlink:href="#m43c04054ad" y="290.31675"/>
      </g>
     </g>
     <g id="text_4">
      <!-- 0.2 -->
      <g style="fill:#555555;" transform="translate(273.146973 304.915187)scale(0.1 -0.1)">
       <use xlink:href="#DejaVuSans-48"/>
       <use x="63.623047" xlink:href="#DejaVuSans-46"/>
       <use x="95.410156" xlink:href="#DejaVuSans-50"/>
      </g>
     </g>
    </g>
    <g id="xtick_5">
     <g id="line2d_9">
      <path clip-path="url(#pdc6011b98e)" d="M 346.35573 290.31675 
L 346.35573 24.20475 
" style="fill:none;stroke:#ffffff;stroke-linecap:square;stroke-width:0.8;"/>
     </g>
     <g id="line2d_10">
      <g>
       <use style="fill:#555555;stroke:#555555;stroke-width:0.8;" x="346.35573" xlink:href="#m43c04054ad" y="290.31675"/>
      </g>
     </g>
     <g id="text_5">
      <!-- 0.4 -->
      <g style="fill:#555555;" transform="translate(338.404168 304.915187)scale(0.1 -0.1)">
       <use xlink:href="#DejaVuSans-48"/>
       <use x="63.623047" xlink:href="#DejaVuSans-46"/>
       <use x="95.410156" xlink:href="#DejaVuSans-52"/>
      </g>
     </g>
    </g>
    <g id="text_6">
     <!-- f (cycles/pixel) -->
     <defs>
      <path d="M 37.109375 75.984375 
L 37.109375 68.5 
L 28.515625 68.5 
Q 23.6875 68.5 21.796875 66.546875 
Q 19.921875 64.59375 19.921875 59.515625 
L 19.921875 54.6875 
L 34.71875 54.6875 
L 34.71875 47.703125 
L 19.921875 47.703125 
L 19.921875 0 
L 10.890625 0 
L 10.890625 47.703125 
L 2.296875 47.703125 
L 2.296875 54.6875 
L 10.890625 54.6875 
L 10.890625 58.5 
Q 10.890625 67.625 15.140625 71.796875 
Q 19.390625 75.984375 28.609375 75.984375 
z
" id="DejaVuSans-102"/>
      <path id="DejaVuSans-32"/>
      <path d="M 31 75.875 
Q 24.46875 64.65625 21.28125 53.65625 
Q 18.109375 42.671875 18.109375 31.390625 
Q 18.109375 20.125 21.3125 9.0625 
Q 24.515625 -2 31 -13.1875 
L 23.1875 -13.1875 
Q 15.875 -1.703125 12.234375 9.375 
Q 8.59375 20.453125 8.59375 31.390625 
Q 8.59375 42.28125 12.203125 53.3125 
Q 15.828125 64.359375 23.1875 75.875 
z
" id="DejaVuSans-40"/>
      <path d="M 48.78125 52.59375 
L 48.78125 44.1875 
Q 44.96875 46.296875 41.140625 47.34375 
Q 37.3125 48.390625 33.40625 48.390625 
Q 24.65625 48.390625 19.8125 42.84375 
Q 14.984375 37.3125 14.984375 27.296875 
Q 14.984375 17.28125 19.8125 11.734375 
Q 24.65625 6.203125 33.40625 6.203125 
Q 37.3125 6.203125 41.140625 7.25 
Q 44.96875 8.296875 48.78125 10.40625 
L 48.78125 2.09375 
Q 45.015625 0.34375 40.984375 -0.53125 
Q 36.96875 -1.421875 32.421875 -1.421875 
Q 20.0625 -1.421875 12.78125 6.34375 
Q 5.515625 14.109375 5.515625 27.296875 
Q 5.515625 40.671875 12.859375 48.328125 
Q 20.21875 56 33.015625 56 
Q 37.15625 56 41.109375 55.140625 
Q 45.0625 54.296875 48.78125 52.59375 
z
" id="DejaVuSans-99"/>
      <path d="M 32.171875 -5.078125 
Q 28.375 -14.84375 24.75 -17.8125 
Q 21.140625 -20.796875 15.09375 -20.796875 
L 7.90625 -20.796875 
L 7.90625 -13.28125 
L 13.1875 -13.28125 
Q 16.890625 -13.28125 18.9375 -11.515625 
Q 21 -9.765625 23.484375 -3.21875 
L 25.09375 0.875 
L 2.984375 54.6875 
L 12.5 54.6875 
L 29.59375 11.921875 
L 46.6875 54.6875 
L 56.203125 54.6875 
z
" id="DejaVuSans-121"/>
      <path d="M 9.421875 75.984375 
L 18.40625 75.984375 
L 18.40625 0 
L 9.421875 0 
z
" id="DejaVuSans-108"/>
      <path d="M 56.203125 29.59375 
L 56.203125 25.203125 
L 14.890625 25.203125 
Q 15.484375 15.921875 20.484375 11.0625 
Q 25.484375 6.203125 34.421875 6.203125 
Q 39.59375 6.203125 44.453125 7.46875 
Q 49.3125 8.734375 54.109375 11.28125 
L 54.109375 2.78125 
Q 49.265625 0.734375 44.1875 -0.34375 
Q 39.109375 -1.421875 33.890625 -1.421875 
Q 20.796875 -1.421875 13.15625 6.1875 
Q 5.515625 13.8125 5.515625 26.8125 
Q 5.515625 40.234375 12.765625 48.109375 
Q 20.015625 56 32.328125 56 
Q 43.359375 56 49.78125 48.890625 
Q 56.203125 41.796875 56.203125 29.59375 
z
M 47.21875 32.234375 
Q 47.125 39.59375 43.09375 43.984375 
Q 39.0625 48.390625 32.421875 48.390625 
Q 24.90625 48.390625 20.390625 44.140625 
Q 15.875 39.890625 15.1875 32.171875 
z
" id="DejaVuSans-101"/>
      <path d="M 44.28125 53.078125 
L 44.28125 44.578125 
Q 40.484375 46.53125 36.375 47.5 
Q 32.28125 48.484375 27.875 48.484375 
Q 21.1875 48.484375 17.84375 46.4375 
Q 14.5 44.390625 14.5 40.28125 
Q 14.5 37.15625 16.890625 35.375 
Q 19.28125 33.59375 26.515625 31.984375 
L 29.59375 31.296875 
Q 39.15625 29.25 43.1875 25.515625 
Q 47.21875 21.78125 47.21875 15.09375 
Q 47.21875 7.46875 41.1875 3.015625 
Q 35.15625 -1.421875 24.609375 -1.421875 
Q 20.21875 -1.421875 15.453125 -0.5625 
Q 10.6875 0.296875 5.421875 2 
L 5.421875 11.28125 
Q 10.40625 8.6875 15.234375 7.390625 
Q 20.0625 6.109375 24.8125 6.109375 
Q 31.15625 6.109375 34.5625 8.28125 
Q 37.984375 10.453125 37.984375 14.40625 
Q 37.984375 18.0625 35.515625 20.015625 
Q 33.0625 21.96875 24.703125 23.78125 
L 21.578125 24.515625 
Q 13.234375 26.265625 9.515625 29.90625 
Q 5.8125 33.546875 5.8125 39.890625 
Q 5.8125 47.609375 11.28125 51.796875 
Q 16.75 56 26.8125 56 
Q 31.78125 56 36.171875 55.265625 
Q 40.578125 54.546875 44.28125 53.078125 
z
" id="DejaVuSans-115"/>
      <path d="M 25.390625 72.90625 
L 33.6875 72.90625 
L 8.296875 -9.28125 
L 0 -9.28125 
z
" id="DejaVuSans-47"/>
      <path d="M 18.109375 8.203125 
L 18.109375 -20.796875 
L 9.078125 -20.796875 
L 9.078125 54.6875 
L 18.109375 54.6875 
L 18.109375 46.390625 
Q 20.953125 51.265625 25.265625 53.625 
Q 29.59375 56 35.59375 56 
Q 45.5625 56 51.78125 48.09375 
Q 58.015625 40.1875 58.015625 27.296875 
Q 58.015625 14.40625 51.78125 6.484375 
Q 45.5625 -1.421875 35.59375 -1.421875 
Q 29.59375 -1.421875 25.265625 0.953125 
Q 20.953125 3.328125 18.109375 8.203125 
z
M 48.6875 27.296875 
Q 48.6875 37.203125 44.609375 42.84375 
Q 40.53125 48.484375 33.40625 48.484375 
Q 26.265625 48.484375 22.1875 42.84375 
Q 18.109375 37.203125 18.109375 27.296875 
Q 18.109375 17.390625 22.1875 11.75 
Q 26.265625 6.109375 33.40625 6.109375 
Q 40.53125 6.109375 44.609375 11.75 
Q 48.6875 17.390625 48.6875 27.296875 
z
" id="DejaVuSans-112"/>
      <path d="M 9.421875 54.6875 
L 18.40625 54.6875 
L 18.40625 0 
L 9.421875 0 
z
M 9.421875 75.984375 
L 18.40625 75.984375 
L 18.40625 64.59375 
L 9.421875 64.59375 
z
" id="DejaVuSans-105"/>
      <path d="M 54.890625 54.6875 
L 35.109375 28.078125 
L 55.90625 0 
L 45.3125 0 
L 29.390625 21.484375 
L 13.484375 0 
L 2.875 0 
L 24.125 28.609375 
L 4.6875 54.6875 
L 15.28125 54.6875 
L 29.78125 35.203125 
L 44.28125 54.6875 
z
" id="DejaVuSans-120"/>
      <path d="M 8.015625 75.875 
L 15.828125 75.875 
Q 23.140625 64.359375 26.78125 53.3125 
Q 30.421875 42.28125 30.421875 31.390625 
Q 30.421875 20.453125 26.78125 9.375 
Q 23.140625 -1.703125 15.828125 -13.1875 
L 8.015625 -13.1875 
Q 14.5 -2 17.703125 9.0625 
Q 20.90625 20.125 20.90625 31.390625 
Q 20.90625 42.671875 17.703125 53.65625 
Q 14.5 64.65625 8.015625 75.875 
z
" id="DejaVuSans-41"/>
     </defs>
     <g style="fill:#555555;" transform="translate(171.286563 320.113)scale(0.12 -0.12)">
      <use xlink:href="#DejaVuSans-102"/>
      <use x="35.205078" xlink:href="#DejaVuSans-32"/>
      <use x="66.992188" xlink:href="#DejaVuSans-40"/>
      <use x="106.005859" xlink:href="#DejaVuSans-99"/>
      <use x="160.986328" xlink:href="#DejaVuSans-121"/>
      <use x="220.166016" xlink:href="#DejaVuSans-99"/>
      <use x="275.146484" xlink:href="#DejaVuSans-108"/>
      <use x="302.929688" xlink:href="#DejaVuSans-101"/>
      <use x="364.453125" xlink:href="#DejaVuSans-115"/>
      <use x="416.552734" xlink:href="#DejaVuSans-47"/>
      <use x="450.244141" xlink:href="#DejaVuSans-112"/>
      <use x="513.720703" xlink:href="#DejaVuSans-105"/>
      <use x="541.503906" xlink:href="#DejaVuSans-120"/>
      <use x="600.636719" xlink:href="#DejaVuSans-101"/>
      <use x="662.160156" xlink:href="#DejaVuSans-108"/>
      <use x="689.943359" xlink:href="#DejaVuSans-41"/>
     </g>
    </g>
   </g>
   <g id="matplotlib.axis_2">
    <g id="ytick_1">
     <g id="line2d_11">
      <path clip-path="url(#pdc6011b98e)" d="M 36.465625 278.22075 
L 393.585625 278.22075 
" style="fill:none;stroke:#ffffff;stroke-linecap:square;stroke-width:0.8;"/>
     </g>
     <g id="line2d_12">
      <defs>
       <path d="M 0 0 
L -3.5 0 
" id="md11e4be409" style="stroke:#555555;stroke-width:0.8;"/>
      </defs>
      <g>
       <use style="fill:#555555;stroke:#555555;stroke-width:0.8;" x="36.465625" xlink:href="#md11e4be409" y="278.22075"/>
      </g>
     </g>
     <g id="text_7">
      <!-- 0.00 -->
      <g style="fill:#555555;" transform="translate(7.2 282.019969)scale(0.1 -0.1)">
       <use xlink:href="#DejaVuSans-48"/>
       <use x="63.623047" xlink:href="#DejaVuSans-46"/>
       <use x="95.410156" xlink:href="#DejaVuSans-48"/>
       <use x="159.033203" xlink:href="#DejaVuSans-48"/>
      </g>
     </g>
    </g>
    <g id="ytick_2">
     <g id="line2d_13">
      <path clip-path="url(#pdc6011b98e)" d="M 36.465625 244.234255 
L 393.585625 244.234255 
" style="fill:none;stroke:#ffffff;stroke-linecap:square;stroke-width:0.8;"/>
     </g>
     <g id="line2d_14">
      <g>
       <use style="fill:#555555;stroke:#555555;stroke-width:0.8;" x="36.465625" xlink:href="#md11e4be409" y="244.234255"/>
      </g>
     </g>
     <g id="text_8">
      <!-- 0.25 -->
      <defs>
       <path d="M 10.796875 72.90625 
L 49.515625 72.90625 
L 49.515625 64.59375 
L 19.828125 64.59375 
L 19.828125 46.734375 
Q 21.96875 47.46875 24.109375 47.828125 
Q 26.265625 48.1875 28.421875 48.1875 
Q 40.625 48.1875 47.75 41.5 
Q 54.890625 34.8125 54.890625 23.390625 
Q 54.890625 11.625 47.5625 5.09375 
Q 40.234375 -1.421875 26.90625 -1.421875 
Q 22.3125 -1.421875 17.546875 -0.640625 
Q 12.796875 0.140625 7.71875 1.703125 
L 7.71875 11.625 
Q 12.109375 9.234375 16.796875 8.0625 
Q 21.484375 6.890625 26.703125 6.890625 
Q 35.15625 6.890625 40.078125 11.328125 
Q 45.015625 15.765625 45.015625 23.390625 
Q 45.015625 31 40.078125 35.4375 
Q 35.15625 39.890625 26.703125 39.890625 
Q 22.75 39.890625 18.8125 39.015625 
Q 14.890625 38.140625 10.796875 36.28125 
z
" id="DejaVuSans-53"/>
      </defs>
      <g style="fill:#555555;" transform="translate(7.2 248.033474)scale(0.1 -0.1)">
       <use xlink:href="#DejaVuSans-48"/>
       <use x="63.623047" xlink:href="#DejaVuSans-46"/>
       <use x="95.410156" xlink:href="#DejaVuSans-50"/>
       <use x="159.033203" xlink:href="#DejaVuSans-53"/>
      </g>
     </g>
    </g>
    <g id="ytick_3">
     <g id="line2d_15">
      <path clip-path="url(#pdc6011b98e)" d="M 36.465625 210.24776 
L 393.585625 210.24776 
" style="fill:none;stroke:#ffffff;stroke-linecap:square;stroke-width:0.8;"/>
     </g>
     <g id="line2d_16">
      <g>
       <use style="fill:#555555;stroke:#555555;stroke-width:0.8;" x="36.465625" xlink:href="#md11e4be409" y="210.24776"/>
      </g>
     </g>
     <g id="text_9">
      <!-- 0.50 -->
      <g style="fill:#555555;" transform="translate(7.2 214.046979)scale(0.1 -0.1)">
       <use xlink:href="#DejaVuSans-48"/>
       <use x="63.623047" xlink:href="#DejaVuSans-46"/>
       <use x="95.410156" xlink:href="#DejaVuSans-53"/>
       <use x="159.033203" xlink:href="#DejaVuSans-48"/>
      </g>
     </g>
    </g>
    <g id="ytick_4">
     <g id="line2d_17">
      <path clip-path="url(#pdc6011b98e)" d="M 36.465625 176.261265 
L 393.585625 176.261265 
" style="fill:none;stroke:#ffffff;stroke-linecap:square;stroke-width:0.8;"/>
     </g>
     <g id="line2d_18">
      <g>
       <use style="fill:#555555;stroke:#555555;stroke-width:0.8;" x="36.465625" xlink:href="#md11e4be409" y="176.261265"/>
      </g>
     </g>
     <g id="text_10">
      <!-- 0.75 -->
      <defs>
       <path d="M 8.203125 72.90625 
L 55.078125 72.90625 
L 55.078125 68.703125 
L 28.609375 0 
L 18.3125 0 
L 43.21875 64.59375 
L 8.203125 64.59375 
z
" id="DejaVuSans-55"/>
      </defs>
      <g style="fill:#555555;" transform="translate(7.2 180.060484)scale(0.1 -0.1)">
       <use xlink:href="#DejaVuSans-48"/>
       <use x="63.623047" xlink:href="#DejaVuSans-46"/>
       <use x="95.410156" xlink:href="#DejaVuSans-55"/>
       <use x="159.033203" xlink:href="#DejaVuSans-53"/>
      </g>
     </g>
    </g>
    <g id="ytick_5">
     <g id="line2d_19">
      <path clip-path="url(#pdc6011b98e)" d="M 36.465625 142.274771 
L 393.585625 142.274771 
" style="fill:none;stroke:#ffffff;stroke-linecap:square;stroke-width:0.8;"/>
     </g>
     <g id="line2d_20">
      <g>
       <use style="fill:#555555;stroke:#555555;stroke-width:0.8;" x="36.465625" xlink:href="#md11e4be409" y="142.274771"/>
      </g>
     </g>
     <g id="text_11">
      <!-- 1.00 -->
      <defs>
       <path d="M 12.40625 8.296875 
L 28.515625 8.296875 
L 28.515625 63.921875 
L 10.984375 60.40625 
L 10.984375 69.390625 
L 28.421875 72.90625 
L 38.28125 72.90625 
L 38.28125 8.296875 
L 54.390625 8.296875 
L 54.390625 0 
L 12.40625 0 
z
" id="DejaVuSans-49"/>
      </defs>
      <g style="fill:#555555;" transform="translate(7.2 146.073989)scale(0.1 -0.1)">
       <use xlink:href="#DejaVuSans-49"/>
       <use x="63.623047" xlink:href="#DejaVuSans-46"/>
       <use x="95.410156" xlink:href="#DejaVuSans-48"/>
       <use x="159.033203" xlink:href="#DejaVuSans-48"/>
      </g>
     </g>
    </g>
    <g id="ytick_6">
     <g id="line2d_21">
      <path clip-path="url(#pdc6011b98e)" d="M 36.465625 108.288276 
L 393.585625 108.288276 
" style="fill:none;stroke:#ffffff;stroke-linecap:square;stroke-width:0.8;"/>
     </g>
     <g id="line2d_22">
      <g>
       <use style="fill:#555555;stroke:#555555;stroke-width:0.8;" x="36.465625" xlink:href="#md11e4be409" y="108.288276"/>
      </g>
     </g>
     <g id="text_12">
      <!-- 1.25 -->
      <g style="fill:#555555;" transform="translate(7.2 112.087494)scale(0.1 -0.1)">
       <use xlink:href="#DejaVuSans-49"/>
       <use x="63.623047" xlink:href="#DejaVuSans-46"/>
       <use x="95.410156" xlink:href="#DejaVuSans-50"/>
       <use x="159.033203" xlink:href="#DejaVuSans-53"/>
      </g>
     </g>
    </g>
    <g id="ytick_7">
     <g id="line2d_23">
      <path clip-path="url(#pdc6011b98e)" d="M 36.465625 74.301781 
L 393.585625 74.301781 
" style="fill:none;stroke:#ffffff;stroke-linecap:square;stroke-width:0.8;"/>
     </g>
     <g id="line2d_24">
      <g>
       <use style="fill:#555555;stroke:#555555;stroke-width:0.8;" x="36.465625" xlink:href="#md11e4be409" y="74.301781"/>
      </g>
     </g>
     <g id="text_13">
      <!-- 1.50 -->
      <g style="fill:#555555;" transform="translate(7.2 78.101)scale(0.1 -0.1)">
       <use xlink:href="#DejaVuSans-49"/>
       <use x="63.623047" xlink:href="#DejaVuSans-46"/>
       <use x="95.410156" xlink:href="#DejaVuSans-53"/>
       <use x="159.033203" xlink:href="#DejaVuSans-48"/>
      </g>
     </g>
    </g>
    <g id="ytick_8">
     <g id="line2d_25">
      <path clip-path="url(#pdc6011b98e)" d="M 36.465625 40.315286 
L 393.585625 40.315286 
" style="fill:none;stroke:#ffffff;stroke-linecap:square;stroke-width:0.8;"/>
     </g>
     <g id="line2d_26">
      <g>
       <use style="fill:#555555;stroke:#555555;stroke-width:0.8;" x="36.465625" xlink:href="#md11e4be409" y="40.315286"/>
      </g>
     </g>
     <g id="text_14">
      <!-- 1.75 -->
      <g style="fill:#555555;" transform="translate(7.2 44.114505)scale(0.1 -0.1)">
       <use xlink:href="#DejaVuSans-49"/>
       <use x="63.623047" xlink:href="#DejaVuSans-46"/>
       <use x="95.410156" xlink:href="#DejaVuSans-55"/>
       <use x="159.033203" xlink:href="#DejaVuSans-53"/>
      </g>
     </g>
    </g>
   </g>
   <g id="line2d_27">
    <path clip-path="url(#pdc6011b98e)" d="M 52.698352 36.30075 
L 54.329782 37.771251 
L 57.592642 41.702044 
L 65.749791 51.547508 
L 72.275511 59.468227 
L 77.1698 65.415886 
L 85.32695 75.534415 
L 90.221239 81.589763 
L 100.009819 94.013054 
L 101.641249 95.964162 
L 103.272678 98.270541 
L 104.904108 100.022809 
L 106.535538 102.588499 
L 108.166968 104.107047 
L 109.798398 106.86376 
L 111.429828 108.373308 
L 113.061258 110.928437 
L 116.324117 114.86724 
L 117.955547 117.415993 
L 119.586977 119.189572 
L 122.849837 123.86815 
L 124.481267 125.629134 
L 127.744127 130.35987 
L 129.375556 132.260424 
L 134.269846 138.980495 
L 135.901276 141.143924 
L 139.164136 145.869412 
L 140.795566 147.905354 
L 157.109864 171.14701 
L 162.004154 178.432116 
L 165.267014 183.217649 
L 175.055593 198.25658 
L 179.949883 206.048835 
L 188.107032 219.510272 
L 193.001322 227.933451 
L 197.895611 236.771242 
L 202.789901 246.084639 
L 206.052761 252.68794 
L 209.31562 259.751546 
L 212.57848 267.574017 
L 214.20991 272.229322 
L 215.84134 275.89512 
L 217.47277 272.229322 
L 219.1042 267.574017 
L 222.367059 259.751546 
L 225.629919 252.68794 
L 230.524209 242.92338 
L 235.418498 233.768946 
L 241.944218 222.271713 
L 248.469937 211.370272 
L 256.627087 198.25658 
L 266.415666 183.217649 
L 276.204245 168.758973 
L 281.098535 161.830291 
L 284.361395 157.074427 
L 287.624255 152.66007 
L 290.887114 147.905354 
L 292.518544 145.869412 
L 297.412834 138.980495 
L 299.044264 137.000124 
L 302.307123 132.260424 
L 303.938553 130.35987 
L 307.201413 125.629134 
L 308.832843 123.86815 
L 312.095703 119.189572 
L 313.727133 117.415993 
L 315.358562 114.86724 
L 318.621422 110.928437 
L 320.252852 108.373308 
L 321.884282 106.86376 
L 323.515712 104.107047 
L 325.147142 102.588499 
L 326.778572 100.022809 
L 328.410001 98.270541 
L 330.041431 95.964162 
L 331.672861 94.013054 
L 336.567151 87.780406 
L 343.09287 79.599757 
L 347.98716 73.462009 
L 356.144309 63.455997 
L 361.038599 57.444148 
L 372.458608 43.698865 
L 377.352898 37.771251 
L 377.352898 37.771251 
" style="fill:none;stroke:#e24a33;stroke-linecap:square;stroke-width:1.5;"/>
   </g>
   <g id="line2d_28">
    <path clip-path="url(#pdc6011b98e)" d="M 52.698352 41.525052 
L 67.381221 58.726333 
L 82.06409 76.271871 
L 95.115529 92.193854 
L 108.166968 108.464602 
L 119.586977 123.027805 
L 131.006986 137.941628 
L 140.795566 151.047248 
L 150.584145 164.500356 
L 160.372724 178.364903 
L 168.529874 190.296482 
L 176.687023 202.649021 
L 183.212742 212.905535 
L 189.738462 223.583812 
L 194.632752 231.945897 
L 199.527041 240.70701 
L 204.421331 250.019472 
L 207.684191 256.674764 
L 210.94705 263.902585 
L 212.57848 267.868986 
L 214.20991 272.275223 
L 215.84134 278.22075 
L 217.47277 272.275223 
L 219.1042 267.868986 
L 222.367059 260.197282 
L 225.629919 253.291376 
L 228.892779 246.84007 
L 233.787069 237.734783 
L 238.681358 229.119472 
L 245.207078 218.185217 
L 251.732797 207.730588 
L 258.258517 197.651552 
L 266.415666 185.478053 
L 274.572815 173.692816 
L 284.361395 159.973841 
L 294.149974 146.642728 
L 305.569983 131.503724 
L 316.989992 116.746336 
L 330.041431 100.282712 
L 343.09287 84.192017 
L 357.775739 66.479357 
L 372.458608 49.130107 
L 377.352898 43.420519 
L 377.352898 43.420519 
" style="fill:none;stroke:#348abd;stroke-dasharray:5.55,2.4;stroke-dashoffset:0;stroke-width:1.5;"/>
   </g>
   <g id="line2d_29">
    <defs>
     <path d="M 0 1.5 
C 0.397805 1.5 0.77937 1.341951 1.06066 1.06066 
C 1.341951 0.77937 1.5 0.397805 1.5 0 
C 1.5 -0.397805 1.341951 -0.77937 1.06066 -1.06066 
C 0.77937 -1.341951 0.397805 -1.5 0 -1.5 
C -0.397805 -1.5 -0.77937 -1.341951 -1.06066 -1.06066 
C -1.341951 -0.77937 -1.5 -0.397805 -1.5 0 
C -1.5 0.397805 -1.341951 0.77937 -1.06066 1.06066 
C -0.77937 1.341951 -0.397805 1.5 0 1.5 
z
" id="m0e3c58ef91" style="stroke:#988ed5;"/>
    </defs>
    <g clip-path="url(#pdc6011b98e)">
     <use style="fill:#988ed5;stroke:#988ed5;" x="52.698352" xlink:href="#m0e3c58ef91" y="139.274197"/>
     <use style="fill:#988ed5;stroke:#988ed5;" x="54.329782" xlink:href="#m0e3c58ef91" y="139.003925"/>
     <use style="fill:#988ed5;stroke:#988ed5;" x="55.961212" xlink:href="#m0e3c58ef91" y="139.058131"/>
     <use style="fill:#988ed5;stroke:#988ed5;" x="57.592642" xlink:href="#m0e3c58ef91" y="139.025598"/>
     <use style="fill:#988ed5;stroke:#988ed5;" x="59.224072" xlink:href="#m0e3c58ef91" y="139.051786"/>
     <use style="fill:#988ed5;stroke:#988ed5;" x="60.855502" xlink:href="#m0e3c58ef91" y="139.028112"/>
     <use style="fill:#988ed5;stroke:#988ed5;" x="62.486932" xlink:href="#m0e3c58ef91" y="139.050691"/>
     <use style="fill:#988ed5;stroke:#988ed5;" x="64.118361" xlink:href="#m0e3c58ef91" y="139.028542"/>
     <use style="fill:#988ed5;stroke:#988ed5;" x="65.749791" xlink:href="#m0e3c58ef91" y="139.050632"/>
     <use style="fill:#988ed5;stroke:#988ed5;" x="67.381221" xlink:href="#m0e3c58ef91" y="139.028362"/>
     <use style="fill:#988ed5;stroke:#988ed5;" x="69.012651" xlink:href="#m0e3c58ef91" y="139.050987"/>
     <use style="fill:#988ed5;stroke:#988ed5;" x="70.644081" xlink:href="#m0e3c58ef91" y="139.027863"/>
     <use style="fill:#988ed5;stroke:#988ed5;" x="72.275511" xlink:href="#m0e3c58ef91" y="139.051612"/>
     <use style="fill:#988ed5;stroke:#988ed5;" x="73.906941" xlink:href="#m0e3c58ef91" y="139.027119"/>
     <use style="fill:#988ed5;stroke:#988ed5;" x="75.538371" xlink:href="#m0e3c58ef91" y="139.052473"/>
     <use style="fill:#988ed5;stroke:#988ed5;" x="77.1698" xlink:href="#m0e3c58ef91" y="139.026142"/>
     <use style="fill:#988ed5;stroke:#988ed5;" x="78.80123" xlink:href="#m0e3c58ef91" y="139.053566"/>
     <use style="fill:#988ed5;stroke:#988ed5;" x="80.43266" xlink:href="#m0e3c58ef91" y="139.024938"/>
     <use style="fill:#988ed5;stroke:#988ed5;" x="82.06409" xlink:href="#m0e3c58ef91" y="139.054867"/>
     <use style="fill:#988ed5;stroke:#988ed5;" x="83.69552" xlink:href="#m0e3c58ef91" y="139.023569"/>
     <use style="fill:#988ed5;stroke:#988ed5;" x="85.32695" xlink:href="#m0e3c58ef91" y="139.056243"/>
     <use style="fill:#988ed5;stroke:#988ed5;" x="86.95838" xlink:href="#m0e3c58ef91" y="139.022298"/>
     <use style="fill:#988ed5;stroke:#988ed5;" x="88.58981" xlink:href="#m0e3c58ef91" y="139.057209"/>
     <use style="fill:#988ed5;stroke:#988ed5;" x="90.221239" xlink:href="#m0e3c58ef91" y="139.021985"/>
     <use style="fill:#988ed5;stroke:#988ed5;" x="91.852669" xlink:href="#m0e3c58ef91" y="139.056284"/>
     <use style="fill:#988ed5;stroke:#988ed5;" x="93.484099" xlink:href="#m0e3c58ef91" y="139.025101"/>
     <use style="fill:#988ed5;stroke:#988ed5;" x="95.115529" xlink:href="#m0e3c58ef91" y="139.049482"/>
     <use style="fill:#988ed5;stroke:#988ed5;" x="96.746959" xlink:href="#m0e3c58ef91" y="139.037829"/>
     <use style="fill:#988ed5;stroke:#988ed5;" x="98.378389" xlink:href="#m0e3c58ef91" y="139.027683"/>
     <use style="fill:#988ed5;stroke:#988ed5;" x="100.009819" xlink:href="#m0e3c58ef91" y="139.072709"/>
     <use style="fill:#988ed5;stroke:#988ed5;" x="101.641249" xlink:href="#m0e3c58ef91" y="138.975366"/>
     <use style="fill:#988ed5;stroke:#988ed5;" x="103.272678" xlink:href="#m0e3c58ef91" y="139.145744"/>
     <use style="fill:#988ed5;stroke:#988ed5;" x="104.904108" xlink:href="#m0e3c58ef91" y="138.882114"/>
     <use style="fill:#988ed5;stroke:#988ed5;" x="106.535538" xlink:href="#m0e3c58ef91" y="139.250951"/>
     <use style="fill:#988ed5;stroke:#988ed5;" x="108.166968" xlink:href="#m0e3c58ef91" y="138.785106"/>
     <use style="fill:#988ed5;stroke:#988ed5;" x="109.798398" xlink:href="#m0e3c58ef91" y="139.30639"/>
     <use style="fill:#988ed5;stroke:#988ed5;" x="111.429828" xlink:href="#m0e3c58ef91" y="138.811679"/>
     <use style="fill:#988ed5;stroke:#988ed5;" x="113.061258" xlink:href="#m0e3c58ef91" y="139.16801"/>
     <use style="fill:#988ed5;stroke:#988ed5;" x="114.692688" xlink:href="#m0e3c58ef91" y="139.053583"/>
     <use style="fill:#988ed5;stroke:#988ed5;" x="116.324117" xlink:href="#m0e3c58ef91" y="138.892043"/>
     <use style="fill:#988ed5;stroke:#988ed5;" x="117.955547" xlink:href="#m0e3c58ef91" y="139.240242"/>
     <use style="fill:#988ed5;stroke:#988ed5;" x="119.586977" xlink:href="#m0e3c58ef91" y="138.912554"/>
     <use style="fill:#988ed5;stroke:#988ed5;" x="121.218407" xlink:href="#m0e3c58ef91" y="138.997234"/>
     <use style="fill:#988ed5;stroke:#988ed5;" x="122.849837" xlink:href="#m0e3c58ef91" y="139.228665"/>
     <use style="fill:#988ed5;stroke:#988ed5;" x="124.481267" xlink:href="#m0e3c58ef91" y="138.854936"/>
     <use style="fill:#988ed5;stroke:#988ed5;" x="126.112697" xlink:href="#m0e3c58ef91" y="139.05842"/>
     <use style="fill:#988ed5;stroke:#988ed5;" x="127.744127" xlink:href="#m0e3c58ef91" y="139.188906"/>
     <use style="fill:#988ed5;stroke:#988ed5;" x="129.375556" xlink:href="#m0e3c58ef91" y="138.908235"/>
     <use style="fill:#988ed5;stroke:#988ed5;" x="131.006986" xlink:href="#m0e3c58ef91" y="138.979898"/>
     <use style="fill:#988ed5;stroke:#988ed5;" x="132.638416" xlink:href="#m0e3c58ef91" y="139.219727"/>
     <use style="fill:#988ed5;stroke:#988ed5;" x="134.269846" xlink:href="#m0e3c58ef91" y="138.980495"/>
     <use style="fill:#988ed5;stroke:#988ed5;" x="135.901276" xlink:href="#m0e3c58ef91" y="138.910466"/>
     <use style="fill:#988ed5;stroke:#988ed5;" x="137.532706" xlink:href="#m0e3c58ef91" y="139.128618"/>
     <use style="fill:#988ed5;stroke:#988ed5;" x="139.164136" xlink:href="#m0e3c58ef91" y="139.15312"/>
     <use style="fill:#988ed5;stroke:#988ed5;" x="140.795566" xlink:href="#m0e3c58ef91" y="138.916147"/>
     <use style="fill:#988ed5;stroke:#988ed5;" x="142.426995" xlink:href="#m0e3c58ef91" y="138.962838"/>
     <use style="fill:#988ed5;stroke:#988ed5;" x="144.058425" xlink:href="#m0e3c58ef91" y="139.13984"/>
     <use style="fill:#988ed5;stroke:#988ed5;" x="145.689855" xlink:href="#m0e3c58ef91" y="139.136039"/>
     <use style="fill:#988ed5;stroke:#988ed5;" x="147.321285" xlink:href="#m0e3c58ef91" y="138.941376"/>
     <use style="fill:#988ed5;stroke:#988ed5;" x="148.952715" xlink:href="#m0e3c58ef91" y="138.945906"/>
     <use style="fill:#988ed5;stroke:#988ed5;" x="150.584145" xlink:href="#m0e3c58ef91" y="139.082866"/>
     <use style="fill:#988ed5;stroke:#988ed5;" x="152.215575" xlink:href="#m0e3c58ef91" y="139.162983"/>
     <use style="fill:#988ed5;stroke:#988ed5;" x="153.847005" xlink:href="#m0e3c58ef91" y="139.036265"/>
     <use style="fill:#988ed5;stroke:#988ed5;" x="155.478435" xlink:href="#m0e3c58ef91" y="138.944483"/>
     <use style="fill:#988ed5;stroke:#988ed5;" x="157.109864" xlink:href="#m0e3c58ef91" y="138.963769"/>
     <use style="fill:#988ed5;stroke:#988ed5;" x="158.741294" xlink:href="#m0e3c58ef91" y="139.097106"/>
     <use style="fill:#988ed5;stroke:#988ed5;" x="160.372724" xlink:href="#m0e3c58ef91" y="139.12963"/>
     <use style="fill:#988ed5;stroke:#988ed5;" x="162.004154" xlink:href="#m0e3c58ef91" y="139.082694"/>
     <use style="fill:#988ed5;stroke:#988ed5;" x="163.635584" xlink:href="#m0e3c58ef91" y="138.97221"/>
     <use style="fill:#988ed5;stroke:#988ed5;" x="165.267014" xlink:href="#m0e3c58ef91" y="138.961379"/>
     <use style="fill:#988ed5;stroke:#988ed5;" x="166.898444" xlink:href="#m0e3c58ef91" y="138.99822"/>
     <use style="fill:#988ed5;stroke:#988ed5;" x="168.529874" xlink:href="#m0e3c58ef91" y="139.09145"/>
     <use style="fill:#988ed5;stroke:#988ed5;" x="170.161303" xlink:href="#m0e3c58ef91" y="139.108061"/>
     <use style="fill:#988ed5;stroke:#988ed5;" x="171.792733" xlink:href="#m0e3c58ef91" y="139.099164"/>
     <use style="fill:#988ed5;stroke:#988ed5;" x="173.424163" xlink:href="#m0e3c58ef91" y="139.023427"/>
     <use style="fill:#988ed5;stroke:#988ed5;" x="175.055593" xlink:href="#m0e3c58ef91" y="138.995043"/>
     <use style="fill:#988ed5;stroke:#988ed5;" x="176.687023" xlink:href="#m0e3c58ef91" y="138.966624"/>
     <use style="fill:#988ed5;stroke:#988ed5;" x="178.318453" xlink:href="#m0e3c58ef91" y="139.0107"/>
     <use style="fill:#988ed5;stroke:#988ed5;" x="179.949883" xlink:href="#m0e3c58ef91" y="139.031374"/>
     <use style="fill:#988ed5;stroke:#988ed5;" x="181.581313" xlink:href="#m0e3c58ef91" y="139.085447"/>
     <use style="fill:#988ed5;stroke:#988ed5;" x="183.212742" xlink:href="#m0e3c58ef91" y="139.0793"/>
     <use style="fill:#988ed5;stroke:#988ed5;" x="184.844172" xlink:href="#m0e3c58ef91" y="139.09565"/>
     <use style="fill:#988ed5;stroke:#988ed5;" x="186.475602" xlink:href="#m0e3c58ef91" y="139.054055"/>
     <use style="fill:#988ed5;stroke:#988ed5;" x="188.107032" xlink:href="#m0e3c58ef91" y="139.054962"/>
     <use style="fill:#988ed5;stroke:#988ed5;" x="189.738462" xlink:href="#m0e3c58ef91" y="139.010044"/>
     <use style="fill:#988ed5;stroke:#988ed5;" x="191.369892" xlink:href="#m0e3c58ef91" y="139.024519"/>
     <use style="fill:#988ed5;stroke:#988ed5;" x="193.001322" xlink:href="#m0e3c58ef91" y="138.99105"/>
     <use style="fill:#988ed5;stroke:#988ed5;" x="194.632752" xlink:href="#m0e3c58ef91" y="139.023789"/>
     <use style="fill:#988ed5;stroke:#988ed5;" x="196.264181" xlink:href="#m0e3c58ef91" y="138.994734"/>
     <use style="fill:#988ed5;stroke:#988ed5;" x="197.895611" xlink:href="#m0e3c58ef91" y="139.039338"/>
     <use style="fill:#988ed5;stroke:#988ed5;" x="199.527041" xlink:href="#m0e3c58ef91" y="139.002623"/>
     <use style="fill:#988ed5;stroke:#988ed5;" x="201.158471" xlink:href="#m0e3c58ef91" y="139.057569"/>
     <use style="fill:#988ed5;stroke:#988ed5;" x="202.789901" xlink:href="#m0e3c58ef91" y="139.002128"/>
     <use style="fill:#988ed5;stroke:#988ed5;" x="204.421331" xlink:href="#m0e3c58ef91" y="139.077772"/>
     <use style="fill:#988ed5;stroke:#988ed5;" x="206.052761" xlink:href="#m0e3c58ef91" y="138.984081"/>
     <use style="fill:#988ed5;stroke:#988ed5;" x="207.684191" xlink:href="#m0e3c58ef91" y="139.117632"/>
     <use style="fill:#988ed5;stroke:#988ed5;" x="209.31562" xlink:href="#m0e3c58ef91" y="138.912704"/>
     <use style="fill:#988ed5;stroke:#988ed5;" x="210.94705" xlink:href="#m0e3c58ef91" y="139.283488"/>
     <use style="fill:#988ed5;stroke:#988ed5;" x="212.57848" xlink:href="#m0e3c58ef91" y="138.401044"/>
     <use style="fill:#988ed5;stroke:#988ed5;" x="214.20991" xlink:href="#m0e3c58ef91" y="141.225232"/>
     <use style="fill:#988ed5;stroke:#988ed5;" x="217.47277" xlink:href="#m0e3c58ef91" y="141.225232"/>
     <use style="fill:#988ed5;stroke:#988ed5;" x="219.1042" xlink:href="#m0e3c58ef91" y="138.401044"/>
     <use style="fill:#988ed5;stroke:#988ed5;" x="220.73563" xlink:href="#m0e3c58ef91" y="139.283488"/>
     <use style="fill:#988ed5;stroke:#988ed5;" x="222.367059" xlink:href="#m0e3c58ef91" y="138.912704"/>
     <use style="fill:#988ed5;stroke:#988ed5;" x="223.998489" xlink:href="#m0e3c58ef91" y="139.117632"/>
     <use style="fill:#988ed5;stroke:#988ed5;" x="225.629919" xlink:href="#m0e3c58ef91" y="138.984081"/>
     <use style="fill:#988ed5;stroke:#988ed5;" x="227.261349" xlink:href="#m0e3c58ef91" y="139.077772"/>
     <use style="fill:#988ed5;stroke:#988ed5;" x="228.892779" xlink:href="#m0e3c58ef91" y="139.002128"/>
     <use style="fill:#988ed5;stroke:#988ed5;" x="230.524209" xlink:href="#m0e3c58ef91" y="139.057569"/>
     <use style="fill:#988ed5;stroke:#988ed5;" x="232.155639" xlink:href="#m0e3c58ef91" y="139.002623"/>
     <use style="fill:#988ed5;stroke:#988ed5;" x="233.787069" xlink:href="#m0e3c58ef91" y="139.039338"/>
     <use style="fill:#988ed5;stroke:#988ed5;" x="235.418498" xlink:href="#m0e3c58ef91" y="138.994734"/>
     <use style="fill:#988ed5;stroke:#988ed5;" x="237.049928" xlink:href="#m0e3c58ef91" y="139.023789"/>
     <use style="fill:#988ed5;stroke:#988ed5;" x="238.681358" xlink:href="#m0e3c58ef91" y="138.99105"/>
     <use style="fill:#988ed5;stroke:#988ed5;" x="240.312788" xlink:href="#m0e3c58ef91" y="139.024519"/>
     <use style="fill:#988ed5;stroke:#988ed5;" x="241.944218" xlink:href="#m0e3c58ef91" y="139.010044"/>
     <use style="fill:#988ed5;stroke:#988ed5;" x="243.575648" xlink:href="#m0e3c58ef91" y="139.054962"/>
     <use style="fill:#988ed5;stroke:#988ed5;" x="245.207078" xlink:href="#m0e3c58ef91" y="139.054055"/>
     <use style="fill:#988ed5;stroke:#988ed5;" x="246.838508" xlink:href="#m0e3c58ef91" y="139.09565"/>
     <use style="fill:#988ed5;stroke:#988ed5;" x="248.469937" xlink:href="#m0e3c58ef91" y="139.0793"/>
     <use style="fill:#988ed5;stroke:#988ed5;" x="250.101367" xlink:href="#m0e3c58ef91" y="139.085447"/>
     <use style="fill:#988ed5;stroke:#988ed5;" x="251.732797" xlink:href="#m0e3c58ef91" y="139.031374"/>
     <use style="fill:#988ed5;stroke:#988ed5;" x="253.364227" xlink:href="#m0e3c58ef91" y="139.0107"/>
     <use style="fill:#988ed5;stroke:#988ed5;" x="254.995657" xlink:href="#m0e3c58ef91" y="138.966624"/>
     <use style="fill:#988ed5;stroke:#988ed5;" x="256.627087" xlink:href="#m0e3c58ef91" y="138.995043"/>
     <use style="fill:#988ed5;stroke:#988ed5;" x="258.258517" xlink:href="#m0e3c58ef91" y="139.023427"/>
     <use style="fill:#988ed5;stroke:#988ed5;" x="259.889947" xlink:href="#m0e3c58ef91" y="139.099164"/>
     <use style="fill:#988ed5;stroke:#988ed5;" x="261.521376" xlink:href="#m0e3c58ef91" y="139.108061"/>
     <use style="fill:#988ed5;stroke:#988ed5;" x="263.152806" xlink:href="#m0e3c58ef91" y="139.09145"/>
     <use style="fill:#988ed5;stroke:#988ed5;" x="264.784236" xlink:href="#m0e3c58ef91" y="138.99822"/>
     <use style="fill:#988ed5;stroke:#988ed5;" x="266.415666" xlink:href="#m0e3c58ef91" y="138.961379"/>
     <use style="fill:#988ed5;stroke:#988ed5;" x="268.047096" xlink:href="#m0e3c58ef91" y="138.97221"/>
     <use style="fill:#988ed5;stroke:#988ed5;" x="269.678526" xlink:href="#m0e3c58ef91" y="139.082694"/>
     <use style="fill:#988ed5;stroke:#988ed5;" x="271.309956" xlink:href="#m0e3c58ef91" y="139.12963"/>
     <use style="fill:#988ed5;stroke:#988ed5;" x="272.941386" xlink:href="#m0e3c58ef91" y="139.097106"/>
     <use style="fill:#988ed5;stroke:#988ed5;" x="274.572815" xlink:href="#m0e3c58ef91" y="138.963769"/>
     <use style="fill:#988ed5;stroke:#988ed5;" x="276.204245" xlink:href="#m0e3c58ef91" y="138.944483"/>
     <use style="fill:#988ed5;stroke:#988ed5;" x="277.835675" xlink:href="#m0e3c58ef91" y="139.036265"/>
     <use style="fill:#988ed5;stroke:#988ed5;" x="279.467105" xlink:href="#m0e3c58ef91" y="139.162983"/>
     <use style="fill:#988ed5;stroke:#988ed5;" x="281.098535" xlink:href="#m0e3c58ef91" y="139.082866"/>
     <use style="fill:#988ed5;stroke:#988ed5;" x="282.729965" xlink:href="#m0e3c58ef91" y="138.945906"/>
     <use style="fill:#988ed5;stroke:#988ed5;" x="284.361395" xlink:href="#m0e3c58ef91" y="138.941376"/>
     <use style="fill:#988ed5;stroke:#988ed5;" x="285.992825" xlink:href="#m0e3c58ef91" y="139.136039"/>
     <use style="fill:#988ed5;stroke:#988ed5;" x="287.624255" xlink:href="#m0e3c58ef91" y="139.13984"/>
     <use style="fill:#988ed5;stroke:#988ed5;" x="289.255684" xlink:href="#m0e3c58ef91" y="138.962838"/>
     <use style="fill:#988ed5;stroke:#988ed5;" x="290.887114" xlink:href="#m0e3c58ef91" y="138.916147"/>
     <use style="fill:#988ed5;stroke:#988ed5;" x="292.518544" xlink:href="#m0e3c58ef91" y="139.15312"/>
     <use style="fill:#988ed5;stroke:#988ed5;" x="294.149974" xlink:href="#m0e3c58ef91" y="139.128618"/>
     <use style="fill:#988ed5;stroke:#988ed5;" x="295.781404" xlink:href="#m0e3c58ef91" y="138.910466"/>
     <use style="fill:#988ed5;stroke:#988ed5;" x="297.412834" xlink:href="#m0e3c58ef91" y="138.980495"/>
     <use style="fill:#988ed5;stroke:#988ed5;" x="299.044264" xlink:href="#m0e3c58ef91" y="139.219727"/>
     <use style="fill:#988ed5;stroke:#988ed5;" x="300.675694" xlink:href="#m0e3c58ef91" y="138.979898"/>
     <use style="fill:#988ed5;stroke:#988ed5;" x="302.307123" xlink:href="#m0e3c58ef91" y="138.908235"/>
     <use style="fill:#988ed5;stroke:#988ed5;" x="303.938553" xlink:href="#m0e3c58ef91" y="139.188906"/>
     <use style="fill:#988ed5;stroke:#988ed5;" x="305.569983" xlink:href="#m0e3c58ef91" y="139.05842"/>
     <use style="fill:#988ed5;stroke:#988ed5;" x="307.201413" xlink:href="#m0e3c58ef91" y="138.854936"/>
     <use style="fill:#988ed5;stroke:#988ed5;" x="308.832843" xlink:href="#m0e3c58ef91" y="139.228665"/>
     <use style="fill:#988ed5;stroke:#988ed5;" x="310.464273" xlink:href="#m0e3c58ef91" y="138.997234"/>
     <use style="fill:#988ed5;stroke:#988ed5;" x="312.095703" xlink:href="#m0e3c58ef91" y="138.912554"/>
     <use style="fill:#988ed5;stroke:#988ed5;" x="313.727133" xlink:href="#m0e3c58ef91" y="139.240242"/>
     <use style="fill:#988ed5;stroke:#988ed5;" x="315.358562" xlink:href="#m0e3c58ef91" y="138.892043"/>
     <use style="fill:#988ed5;stroke:#988ed5;" x="316.989992" xlink:href="#m0e3c58ef91" y="139.053583"/>
     <use style="fill:#988ed5;stroke:#988ed5;" x="318.621422" xlink:href="#m0e3c58ef91" y="139.16801"/>
     <use style="fill:#988ed5;stroke:#988ed5;" x="320.252852" xlink:href="#m0e3c58ef91" y="138.811679"/>
     <use style="fill:#988ed5;stroke:#988ed5;" x="321.884282" xlink:href="#m0e3c58ef91" y="139.30639"/>
     <use style="fill:#988ed5;stroke:#988ed5;" x="323.515712" xlink:href="#m0e3c58ef91" y="138.785106"/>
     <use style="fill:#988ed5;stroke:#988ed5;" x="325.147142" xlink:href="#m0e3c58ef91" y="139.250951"/>
     <use style="fill:#988ed5;stroke:#988ed5;" x="326.778572" xlink:href="#m0e3c58ef91" y="138.882114"/>
     <use style="fill:#988ed5;stroke:#988ed5;" x="328.410001" xlink:href="#m0e3c58ef91" y="139.145744"/>
     <use style="fill:#988ed5;stroke:#988ed5;" x="330.041431" xlink:href="#m0e3c58ef91" y="138.975366"/>
     <use style="fill:#988ed5;stroke:#988ed5;" x="331.672861" xlink:href="#m0e3c58ef91" y="139.072709"/>
     <use style="fill:#988ed5;stroke:#988ed5;" x="333.304291" xlink:href="#m0e3c58ef91" y="139.027683"/>
     <use style="fill:#988ed5;stroke:#988ed5;" x="334.935721" xlink:href="#m0e3c58ef91" y="139.037829"/>
     <use style="fill:#988ed5;stroke:#988ed5;" x="336.567151" xlink:href="#m0e3c58ef91" y="139.049482"/>
     <use style="fill:#988ed5;stroke:#988ed5;" x="338.198581" xlink:href="#m0e3c58ef91" y="139.025101"/>
     <use style="fill:#988ed5;stroke:#988ed5;" x="339.830011" xlink:href="#m0e3c58ef91" y="139.056284"/>
     <use style="fill:#988ed5;stroke:#988ed5;" x="341.46144" xlink:href="#m0e3c58ef91" y="139.021985"/>
     <use style="fill:#988ed5;stroke:#988ed5;" x="343.09287" xlink:href="#m0e3c58ef91" y="139.057209"/>
     <use style="fill:#988ed5;stroke:#988ed5;" x="344.7243" xlink:href="#m0e3c58ef91" y="139.022298"/>
     <use style="fill:#988ed5;stroke:#988ed5;" x="346.35573" xlink:href="#m0e3c58ef91" y="139.056243"/>
     <use style="fill:#988ed5;stroke:#988ed5;" x="347.98716" xlink:href="#m0e3c58ef91" y="139.023569"/>
     <use style="fill:#988ed5;stroke:#988ed5;" x="349.61859" xlink:href="#m0e3c58ef91" y="139.054867"/>
     <use style="fill:#988ed5;stroke:#988ed5;" x="351.25002" xlink:href="#m0e3c58ef91" y="139.024938"/>
     <use style="fill:#988ed5;stroke:#988ed5;" x="352.88145" xlink:href="#m0e3c58ef91" y="139.053566"/>
     <use style="fill:#988ed5;stroke:#988ed5;" x="354.512879" xlink:href="#m0e3c58ef91" y="139.026142"/>
     <use style="fill:#988ed5;stroke:#988ed5;" x="356.144309" xlink:href="#m0e3c58ef91" y="139.052473"/>
     <use style="fill:#988ed5;stroke:#988ed5;" x="357.775739" xlink:href="#m0e3c58ef91" y="139.027119"/>
     <use style="fill:#988ed5;stroke:#988ed5;" x="359.407169" xlink:href="#m0e3c58ef91" y="139.051612"/>
     <use style="fill:#988ed5;stroke:#988ed5;" x="361.038599" xlink:href="#m0e3c58ef91" y="139.027863"/>
     <use style="fill:#988ed5;stroke:#988ed5;" x="362.670029" xlink:href="#m0e3c58ef91" y="139.050987"/>
     <use style="fill:#988ed5;stroke:#988ed5;" x="364.301459" xlink:href="#m0e3c58ef91" y="139.028362"/>
     <use style="fill:#988ed5;stroke:#988ed5;" x="365.932889" xlink:href="#m0e3c58ef91" y="139.050632"/>
     <use style="fill:#988ed5;stroke:#988ed5;" x="367.564318" xlink:href="#m0e3c58ef91" y="139.028542"/>
     <use style="fill:#988ed5;stroke:#988ed5;" x="369.195748" xlink:href="#m0e3c58ef91" y="139.050691"/>
     <use style="fill:#988ed5;stroke:#988ed5;" x="370.827178" xlink:href="#m0e3c58ef91" y="139.028112"/>
     <use style="fill:#988ed5;stroke:#988ed5;" x="372.458608" xlink:href="#m0e3c58ef91" y="139.051786"/>
     <use style="fill:#988ed5;stroke:#988ed5;" x="374.090038" xlink:href="#m0e3c58ef91" y="139.025598"/>
     <use style="fill:#988ed5;stroke:#988ed5;" x="375.721468" xlink:href="#m0e3c58ef91" y="139.058131"/>
     <use style="fill:#988ed5;stroke:#988ed5;" x="377.352898" xlink:href="#m0e3c58ef91" y="139.003925"/>
    </g>
   </g>
   <g id="patch_3">
    <path d="M 36.465625 290.31675 
L 36.465625 24.20475 
" style="fill:none;stroke:#ffffff;stroke-linecap:square;stroke-linejoin:miter;"/>
   </g>
   <g id="patch_4">
    <path d="M 393.585625 290.31675 
L 393.585625 24.20475 
" style="fill:none;stroke:#ffffff;stroke-linecap:square;stroke-linejoin:miter;"/>
   </g>
   <g id="patch_5">
    <path d="M 36.465625 290.31675 
L 393.585625 290.31675 
" style="fill:none;stroke:#ffffff;stroke-linecap:square;stroke-linejoin:miter;"/>
   </g>
   <g id="patch_6">
    <path d="M 36.465625 24.20475 
L 393.585625 24.20475 
" style="fill:none;stroke:#ffffff;stroke-linecap:square;stroke-linejoin:miter;"/>
   </g>
   <g id="text_15">
    <!-- Cut of actual F[L(r)] versus expected |4⋅f|^0.8 -->
    <defs>
     <path d="M 64.40625 67.28125 
L 64.40625 56.890625 
Q 59.421875 61.53125 53.78125 63.8125 
Q 48.140625 66.109375 41.796875 66.109375 
Q 29.296875 66.109375 22.65625 58.46875 
Q 16.015625 50.828125 16.015625 36.375 
Q 16.015625 21.96875 22.65625 14.328125 
Q 29.296875 6.6875 41.796875 6.6875 
Q 48.140625 6.6875 53.78125 8.984375 
Q 59.421875 11.28125 64.40625 15.921875 
L 64.40625 5.609375 
Q 59.234375 2.09375 53.4375 0.328125 
Q 47.65625 -1.421875 41.21875 -1.421875 
Q 24.65625 -1.421875 15.125 8.703125 
Q 5.609375 18.84375 5.609375 36.375 
Q 5.609375 53.953125 15.125 64.078125 
Q 24.65625 74.21875 41.21875 74.21875 
Q 47.75 74.21875 53.53125 72.484375 
Q 59.328125 70.75 64.40625 67.28125 
z
" id="DejaVuSans-67"/>
     <path d="M 8.5 21.578125 
L 8.5 54.6875 
L 17.484375 54.6875 
L 17.484375 21.921875 
Q 17.484375 14.15625 20.5 10.265625 
Q 23.53125 6.390625 29.59375 6.390625 
Q 36.859375 6.390625 41.078125 11.03125 
Q 45.3125 15.671875 45.3125 23.6875 
L 45.3125 54.6875 
L 54.296875 54.6875 
L 54.296875 0 
L 45.3125 0 
L 45.3125 8.40625 
Q 42.046875 3.421875 37.71875 1 
Q 33.40625 -1.421875 27.6875 -1.421875 
Q 18.265625 -1.421875 13.375 4.4375 
Q 8.5 10.296875 8.5 21.578125 
z
M 31.109375 56 
z
" id="DejaVuSans-117"/>
     <path d="M 18.3125 70.21875 
L 18.3125 54.6875 
L 36.8125 54.6875 
L 36.8125 47.703125 
L 18.3125 47.703125 
L 18.3125 18.015625 
Q 18.3125 11.328125 20.140625 9.421875 
Q 21.96875 7.515625 27.59375 7.515625 
L 36.8125 7.515625 
L 36.8125 0 
L 27.59375 0 
Q 17.1875 0 13.234375 3.875 
Q 9.28125 7.765625 9.28125 18.015625 
L 9.28125 47.703125 
L 2.6875 47.703125 
L 2.6875 54.6875 
L 9.28125 54.6875 
L 9.28125 70.21875 
z
" id="DejaVuSans-116"/>
     <path d="M 30.609375 48.390625 
Q 23.390625 48.390625 19.1875 42.75 
Q 14.984375 37.109375 14.984375 27.296875 
Q 14.984375 17.484375 19.15625 11.84375 
Q 23.34375 6.203125 30.609375 6.203125 
Q 37.796875 6.203125 41.984375 11.859375 
Q 46.1875 17.53125 46.1875 27.296875 
Q 46.1875 37.015625 41.984375 42.703125 
Q 37.796875 48.390625 30.609375 48.390625 
z
M 30.609375 56 
Q 42.328125 56 49.015625 48.375 
Q 55.71875 40.765625 55.71875 27.296875 
Q 55.71875 13.875 49.015625 6.21875 
Q 42.328125 -1.421875 30.609375 -1.421875 
Q 18.84375 -1.421875 12.171875 6.21875 
Q 5.515625 13.875 5.515625 27.296875 
Q 5.515625 40.765625 12.171875 48.375 
Q 18.84375 56 30.609375 56 
z
" id="DejaVuSans-111"/>
     <path d="M 34.28125 27.484375 
Q 23.390625 27.484375 19.1875 25 
Q 14.984375 22.515625 14.984375 16.5 
Q 14.984375 11.71875 18.140625 8.90625 
Q 21.296875 6.109375 26.703125 6.109375 
Q 34.1875 6.109375 38.703125 11.40625 
Q 43.21875 16.703125 43.21875 25.484375 
L 43.21875 27.484375 
z
M 52.203125 31.203125 
L 52.203125 0 
L 43.21875 0 
L 43.21875 8.296875 
Q 40.140625 3.328125 35.546875 0.953125 
Q 30.953125 -1.421875 24.3125 -1.421875 
Q 15.921875 -1.421875 10.953125 3.296875 
Q 6 8.015625 6 15.921875 
Q 6 25.140625 12.171875 29.828125 
Q 18.359375 34.515625 30.609375 34.515625 
L 43.21875 34.515625 
L 43.21875 35.40625 
Q 43.21875 41.609375 39.140625 45 
Q 35.0625 48.390625 27.6875 48.390625 
Q 23 48.390625 18.546875 47.265625 
Q 14.109375 46.140625 10.015625 43.890625 
L 10.015625 52.203125 
Q 14.9375 54.109375 19.578125 55.046875 
Q 24.21875 56 28.609375 56 
Q 40.484375 56 46.34375 49.84375 
Q 52.203125 43.703125 52.203125 31.203125 
z
" id="DejaVuSans-97"/>
     <path d="M 9.8125 72.90625 
L 51.703125 72.90625 
L 51.703125 64.59375 
L 19.671875 64.59375 
L 19.671875 43.109375 
L 48.578125 43.109375 
L 48.578125 34.8125 
L 19.671875 34.8125 
L 19.671875 0 
L 9.8125 0 
z
" id="DejaVuSans-70"/>
     <path d="M 8.59375 75.984375 
L 29.296875 75.984375 
L 29.296875 69 
L 17.578125 69 
L 17.578125 -6.203125 
L 29.296875 -6.203125 
L 29.296875 -13.1875 
L 8.59375 -13.1875 
z
" id="DejaVuSans-91"/>
     <path d="M 9.8125 72.90625 
L 19.671875 72.90625 
L 19.671875 8.296875 
L 55.171875 8.296875 
L 55.171875 0 
L 9.8125 0 
z
" id="DejaVuSans-76"/>
     <path d="M 41.109375 46.296875 
Q 39.59375 47.171875 37.8125 47.578125 
Q 36.03125 48 33.890625 48 
Q 26.265625 48 22.1875 43.046875 
Q 18.109375 38.09375 18.109375 28.8125 
L 18.109375 0 
L 9.078125 0 
L 9.078125 54.6875 
L 18.109375 54.6875 
L 18.109375 46.1875 
Q 20.953125 51.171875 25.484375 53.578125 
Q 30.03125 56 36.53125 56 
Q 37.453125 56 38.578125 55.875 
Q 39.703125 55.765625 41.0625 55.515625 
z
" id="DejaVuSans-114"/>
     <path d="M 30.421875 75.984375 
L 30.421875 -13.1875 
L 9.71875 -13.1875 
L 9.71875 -6.203125 
L 21.390625 -6.203125 
L 21.390625 69 
L 9.71875 69 
L 9.71875 75.984375 
z
" id="DejaVuSans-93"/>
     <path d="M 2.984375 54.6875 
L 12.5 54.6875 
L 29.59375 8.796875 
L 46.6875 54.6875 
L 56.203125 54.6875 
L 35.6875 0 
L 23.484375 0 
z
" id="DejaVuSans-118"/>
     <path d="M 45.40625 46.390625 
L 45.40625 75.984375 
L 54.390625 75.984375 
L 54.390625 0 
L 45.40625 0 
L 45.40625 8.203125 
Q 42.578125 3.328125 38.25 0.953125 
Q 33.9375 -1.421875 27.875 -1.421875 
Q 17.96875 -1.421875 11.734375 6.484375 
Q 5.515625 14.40625 5.515625 27.296875 
Q 5.515625 40.1875 11.734375 48.09375 
Q 17.96875 56 27.875 56 
Q 33.9375 56 38.25 53.625 
Q 42.578125 51.265625 45.40625 46.390625 
z
M 14.796875 27.296875 
Q 14.796875 17.390625 18.875 11.75 
Q 22.953125 6.109375 30.078125 6.109375 
Q 37.203125 6.109375 41.296875 11.75 
Q 45.40625 17.390625 45.40625 27.296875 
Q 45.40625 37.203125 41.296875 42.84375 
Q 37.203125 48.484375 30.078125 48.484375 
Q 22.953125 48.484375 18.875 42.84375 
Q 14.796875 37.203125 14.796875 27.296875 
z
" id="DejaVuSans-100"/>
     <path d="M 21 76.421875 
L 21 -23.578125 
L 12.703125 -23.578125 
L 12.703125 76.421875 
z
" id="DejaVuSans-124"/>
     <path d="M 10.6875 40.921875 
L 21 40.921875 
L 21 28.515625 
L 10.6875 28.515625 
z
" id="DejaVuSans-8901"/>
     <path d="M 46.6875 72.90625 
L 73.1875 45.703125 
L 63.375 45.703125 
L 41.890625 64.984375 
L 20.40625 45.703125 
L 10.59375 45.703125 
L 37.109375 72.90625 
z
" id="DejaVuSans-94"/>
     <path d="M 31.78125 34.625 
Q 24.75 34.625 20.71875 30.859375 
Q 16.703125 27.09375 16.703125 20.515625 
Q 16.703125 13.921875 20.71875 10.15625 
Q 24.75 6.390625 31.78125 6.390625 
Q 38.8125 6.390625 42.859375 10.171875 
Q 46.921875 13.96875 46.921875 20.515625 
Q 46.921875 27.09375 42.890625 30.859375 
Q 38.875 34.625 31.78125 34.625 
z
M 21.921875 38.8125 
Q 15.578125 40.375 12.03125 44.71875 
Q 8.5 49.078125 8.5 55.328125 
Q 8.5 64.0625 14.71875 69.140625 
Q 20.953125 74.21875 31.78125 74.21875 
Q 42.671875 74.21875 48.875 69.140625 
Q 55.078125 64.0625 55.078125 55.328125 
Q 55.078125 49.078125 51.53125 44.71875 
Q 48 40.375 41.703125 38.8125 
Q 48.828125 37.15625 52.796875 32.3125 
Q 56.78125 27.484375 56.78125 20.515625 
Q 56.78125 9.90625 50.3125 4.234375 
Q 43.84375 -1.421875 31.78125 -1.421875 
Q 19.734375 -1.421875 13.25 4.234375 
Q 6.78125 9.90625 6.78125 20.515625 
Q 6.78125 27.484375 10.78125 32.3125 
Q 14.796875 37.15625 21.921875 38.8125 
z
M 18.3125 54.390625 
Q 18.3125 48.734375 21.84375 45.5625 
Q 25.390625 42.390625 31.78125 42.390625 
Q 38.140625 42.390625 41.71875 45.5625 
Q 45.3125 48.734375 45.3125 54.390625 
Q 45.3125 60.0625 41.71875 63.234375 
Q 38.140625 66.40625 31.78125 66.40625 
Q 25.390625 66.40625 21.84375 63.234375 
Q 18.3125 60.0625 18.3125 54.390625 
z
" id="DejaVuSans-56"/>
    </defs>
    <g transform="translate(48.49525 18.20475)scale(0.144 -0.144)">
     <use xlink:href="#DejaVuSans-67"/>
     <use x="69.824219" xlink:href="#DejaVuSans-117"/>
     <use x="133.203125" xlink:href="#DejaVuSans-116"/>
     <use x="172.412109" xlink:href="#DejaVuSans-32"/>
     <use x="204.199219" xlink:href="#DejaVuSans-111"/>
     <use x="265.380859" xlink:href="#DejaVuSans-102"/>
     <use x="300.585938" xlink:href="#DejaVuSans-32"/>
     <use x="332.373047" xlink:href="#DejaVuSans-97"/>
     <use x="393.652344" xlink:href="#DejaVuSans-99"/>
     <use x="448.632812" xlink:href="#DejaVuSans-116"/>
     <use x="487.841797" xlink:href="#DejaVuSans-117"/>
     <use x="551.220703" xlink:href="#DejaVuSans-97"/>
     <use x="612.5" xlink:href="#DejaVuSans-108"/>
     <use x="640.283203" xlink:href="#DejaVuSans-32"/>
     <use x="672.070312" xlink:href="#DejaVuSans-70"/>
     <use x="729.589844" xlink:href="#DejaVuSans-91"/>
     <use x="768.603516" xlink:href="#DejaVuSans-76"/>
     <use x="824.316406" xlink:href="#DejaVuSans-40"/>
     <use x="863.330078" xlink:href="#DejaVuSans-114"/>
     <use x="904.443359" xlink:href="#DejaVuSans-41"/>
     <use x="943.457031" xlink:href="#DejaVuSans-93"/>
     <use x="982.470703" xlink:href="#DejaVuSans-32"/>
     <use x="1014.257812" xlink:href="#DejaVuSans-118"/>
     <use x="1073.4375" xlink:href="#DejaVuSans-101"/>
     <use x="1134.960938" xlink:href="#DejaVuSans-114"/>
     <use x="1176.074219" xlink:href="#DejaVuSans-115"/>
     <use x="1228.173828" xlink:href="#DejaVuSans-117"/>
     <use x="1291.552734" xlink:href="#DejaVuSans-115"/>
     <use x="1343.652344" xlink:href="#DejaVuSans-32"/>
     <use x="1375.439453" xlink:href="#DejaVuSans-101"/>
     <use x="1436.947266" xlink:href="#DejaVuSans-120"/>
     <use x="1496.126953" xlink:href="#DejaVuSans-112"/>
     <use x="1559.603516" xlink:href="#DejaVuSans-101"/>
     <use x="1621.126953" xlink:href="#DejaVuSans-99"/>
     <use x="1676.107422" xlink:href="#DejaVuSans-116"/>
     <use x="1715.316406" xlink:href="#DejaVuSans-101"/>
     <use x="1776.839844" xlink:href="#DejaVuSans-100"/>
     <use x="1840.316406" xlink:href="#DejaVuSans-32"/>
     <use x="1872.103516" xlink:href="#DejaVuSans-124"/>
     <use x="1905.794922" xlink:href="#DejaVuSans-52"/>
     <use x="1969.417969" xlink:href="#DejaVuSans-8901"/>
     <use x="2001.205078" xlink:href="#DejaVuSans-102"/>
     <use x="2036.410156" xlink:href="#DejaVuSans-124"/>
     <use x="2070.101562" xlink:href="#DejaVuSans-94"/>
     <use x="2153.890625" xlink:href="#DejaVuSans-48"/>
     <use x="2217.513672" xlink:href="#DejaVuSans-46"/>
     <use x="2249.300781" xlink:href="#DejaVuSans-56"/>
    </g>
   </g>
   <g id="legend_1">
    <g id="patch_7">
     <path d="M 43.465625 285.31675 
L 156.117188 285.31675 
Q 158.117188 285.31675 158.117188 283.31675 
L 158.117188 240.282375 
Q 158.117188 238.282375 156.117188 238.282375 
L 43.465625 238.282375 
Q 41.465625 238.282375 41.465625 240.282375 
L 41.465625 283.31675 
Q 41.465625 285.31675 43.465625 285.31675 
z
" style="fill:#e5e5e5;opacity:0.8;stroke:#cccccc;stroke-linejoin:miter;stroke-width:0.5;"/>
    </g>
    <g id="line2d_30">
     <path d="M 45.465625 246.380812 
L 65.465625 246.380812 
" style="fill:none;stroke:#e24a33;stroke-linecap:square;stroke-width:1.5;"/>
    </g>
    <g id="line2d_31"/>
    <g id="text_16">
     <!-- actual -->
     <g transform="translate(73.465625 249.880812)scale(0.1 -0.1)">
      <use xlink:href="#DejaVuSans-97"/>
      <use x="61.279297" xlink:href="#DejaVuSans-99"/>
      <use x="116.259766" xlink:href="#DejaVuSans-116"/>
      <use x="155.46875" xlink:href="#DejaVuSans-117"/>
      <use x="218.847656" xlink:href="#DejaVuSans-97"/>
      <use x="280.126953" xlink:href="#DejaVuSans-108"/>
     </g>
    </g>
    <g id="line2d_32">
     <path d="M 45.465625 261.058937 
L 65.465625 261.058937 
" style="fill:none;stroke:#348abd;stroke-dasharray:5.55,2.4;stroke-dashoffset:0;stroke-width:1.5;"/>
    </g>
    <g id="line2d_33"/>
    <g id="text_17">
     <!-- expected -->
     <g transform="translate(73.465625 264.558937)scale(0.1 -0.1)">
      <use xlink:href="#DejaVuSans-101"/>
      <use x="61.507812" xlink:href="#DejaVuSans-120"/>
      <use x="120.6875" xlink:href="#DejaVuSans-112"/>
      <use x="184.164062" xlink:href="#DejaVuSans-101"/>
      <use x="245.6875" xlink:href="#DejaVuSans-99"/>
      <use x="300.667969" xlink:href="#DejaVuSans-116"/>
      <use x="339.876953" xlink:href="#DejaVuSans-101"/>
      <use x="401.400391" xlink:href="#DejaVuSans-100"/>
     </g>
    </g>
    <g id="line2d_34"/>
    <g id="line2d_35">
     <g>
      <use style="fill:#988ed5;stroke:#988ed5;" x="55.465625" xlink:href="#m0e3c58ef91" y="275.737062"/>
     </g>
    </g>
    <g id="text_18">
     <!-- actual/expected -->
     <g transform="translate(73.465625 279.237062)scale(0.1 -0.1)">
      <use xlink:href="#DejaVuSans-97"/>
      <use x="61.279297" xlink:href="#DejaVuSans-99"/>
      <use x="116.259766" xlink:href="#DejaVuSans-116"/>
      <use x="155.46875" xlink:href="#DejaVuSans-117"/>
      <use x="218.847656" xlink:href="#DejaVuSans-97"/>
      <use x="280.126953" xlink:href="#DejaVuSans-108"/>
      <use x="307.910156" xlink:href="#DejaVuSans-47"/>
      <use x="341.601562" xlink:href="#DejaVuSans-101"/>
      <use x="403.109375" xlink:href="#DejaVuSans-120"/>
      <use x="462.289062" xlink:href="#DejaVuSans-112"/>
      <use x="525.765625" xlink:href="#DejaVuSans-101"/>
      <use x="587.289062" xlink:href="#DejaVuSans-99"/>
      <use x="642.269531" xlink:href="#DejaVuSans-116"/>
      <use x="681.478516" xlink:href="#DejaVuSans-101"/>
      <use x="743.001953" xlink:href="#DejaVuSans-100"/>
     </g>
    </g>
   </g>
  </g>
 </g>
 <defs>
  <clipPath id="pdc6011b98e">
   <rect height="266.112" width="357.12" x="36.465625" y="24.20475"/>
  </clipPath>
 </defs>
</svg>
